<?xml version="1.0" standalone="no"?>
<!DOCTYPE svg PUBLIC "-//W3C//DTD SVG 20010904//EN"
 "http://www.w3.org/TR/2001/REC-SVG-20010904/DTD/svg10.dtd">
<svg version="1.0" xmlns="http://www.w3.org/2000/svg"
 width="64.000000pt" height="64.000000pt" viewBox="0 0 64.000000 64.000000"
 preserveAspectRatio="xMidYMid meet">

<g transform="translate(0.000000,64.000000) scale(0.100000,-0.100000)"
fill="#000000" stroke="none">
<path d="M102 573 c-21 -57 -32 -96 -27 -101 12 -13 32 10 43 52 l12 46 189 0
189 0 17 -50 c10 -29 23 -50 31 -50 8 0 14 1 14 3 -1 15 -33 103 -41 113 -9
11 -55 14 -214 14 l-203 0 -10 -27z"/>
<path d="M10 403 c0 -14 9 -101 21 -192 16 -132 25 -170 40 -186 18 -19 33
-20 249 -20 216 0 231 1 249 20 15 16 24 54 40 186 12 91 21 178 21 192 l0 27
-310 0 -310 0 0 -27z m268 -85 c15 -15 15 -51 0 -66 -15 -15 -51 -15 -66 0
-15 15 -15 51 0 66 7 7 21 12 33 12 12 0 26 -5 33 -12z m140 -2 c-4 -19 -177
-206 -190 -206 -21 0 1 33 85 124 84 91 112 113 105 82z m10 -128 c28 -28 7
-78 -33 -78 -27 0 -45 18 -45 45 0 27 18 45 45 45 12 0 26 -5 33 -12z"/>
<path d="M230 285 c0 -8 7 -15 15 -15 8 0 15 7 15 15 0 8 -7 15 -15 15 -8 0
-15 -7 -15 -15z"/>
<path d="M380 155 c0 -8 7 -15 15 -15 8 0 15 7 15 15 0 8 -7 15 -15 15 -8 0
-15 -7 -15 -15z"/>
</g>
</svg>
