<?xml version="1.0" encoding="utf-8"?>
<!-- Generator: Adobe Illustrator 27.5.0, SVG Export Plug-In . SVG Version: 6.00 Build 0)  -->
<svg version="1.1" id="Capa_1" xmlns="http://www.w3.org/2000/svg" xmlns:xlink="http://www.w3.org/1999/xlink" x="0px" y="0px"
	 viewBox="0 0 411 393" style="enable-background:new 0 0 411 393;" xml:space="preserve">
<g>
	<rect style="fill:#FFFFFF;" width="411" height="393"/>
	<g>
		<defs>
			<filter id="Adobe_OpacityMaskFilter" filterUnits="userSpaceOnUse" x="0" y="311.161" width="278.16" height="45.704">
				<feFlood  style="flood-color:white;flood-opacity:1" result="back"/>
				<feBlend  in="SourceGraphic" in2="back" mode="normal"/>
			</filter>
		</defs>
		<mask maskUnits="userSpaceOnUse" x="0" y="311.161" width="278.16" height="45.704" id="SVGID_1_">
			<g style="filter:url(#Adobe_OpacityMaskFilter);">
				<defs>
					
						<filter id="Adobe_OpacityMaskFilter_00000150104911864491797120000013584866854323553963_" filterUnits="userSpaceOnUse" x="0" y="311.161" width="278.16" height="45.704">
						<feFlood  style="flood-color:white;flood-opacity:1" result="back"/>
						<feBlend  in="SourceGraphic" in2="back" mode="normal"/>
					</filter>
				</defs>
				<mask maskUnits="userSpaceOnUse" x="0" y="311.161" width="278.16" height="45.704" id="SVGID_1_">
					<g style="filter:url(#Adobe_OpacityMaskFilter_00000150104911864491797120000013584866854323553963_);">
					</g>
				</mask>
				
					<radialGradient id="SVGID_00000170975246277459894430000008770622735326546590_" cx="-651.0074" cy="274.8167" r="119.504" gradientTransform="matrix(1.4955 0 0 0.1912 1073.0461 281.4682)" gradientUnits="userSpaceOnUse">
					<stop  offset="0.0129" style="stop-color:#FFFFFF"/>
					<stop  offset="0.1647" style="stop-color:#D4D4D4"/>
					<stop  offset="0.5042" style="stop-color:#6A6A6A"/>
					<stop  offset="0.8263" style="stop-color:#000000"/>
				</radialGradient>
				<path style="mask:url(#SVGID_1_);fill:url(#SVGID_00000170975246277459894430000008770622735326546590_);" d="M99.465,311.161
					c-36.818,0-71.031,1.426-99.465,3.866v37.972c28.434,2.441,62.646,3.866,99.465,3.866c98.69,0,178.695-10.232,178.695-22.854
					C278.16,321.393,198.155,311.161,99.465,311.161z"/>
			</g>
		</mask>
		
			<radialGradient id="SVGID_00000095337056330333961700000003072358981051005840_" cx="-651.0074" cy="274.8167" r="119.504" gradientTransform="matrix(1.4955 0 0 0.1912 1073.0461 281.4682)" gradientUnits="userSpaceOnUse">
			<stop  offset="0.0129" style="stop-color:#000000"/>
			<stop  offset="0.1647" style="stop-color:#2B2B2B"/>
			<stop  offset="0.5042" style="stop-color:#959595"/>
			<stop  offset="0.8263" style="stop-color:#FFFFFF"/>
		</radialGradient>
		<path style="opacity:0.6;fill:url(#SVGID_00000095337056330333961700000003072358981051005840_);" d="M99.465,311.161
			c-36.818,0-71.031,1.426-99.465,3.866v37.972c28.434,2.441,62.646,3.866,99.465,3.866c98.69,0,178.695-10.232,178.695-22.854
			C278.16,321.393,198.155,311.161,99.465,311.161z"/>
		<defs>
			
				<filter id="Adobe_OpacityMaskFilter_00000084502462378245696430000000558968453022758277_" filterUnits="userSpaceOnUse" x="171.467" y="323.165" width="239.533" height="42.543">
				<feFlood  style="flood-color:white;flood-opacity:1" result="back"/>
				<feBlend  in="SourceGraphic" in2="back" mode="normal"/>
			</filter>
		</defs>
		
			<mask maskUnits="userSpaceOnUse" x="171.467" y="323.165" width="239.533" height="42.543" id="SVGID_00000036933891246191064670000013392641112150684857_">
			<g style="filter:url(#Adobe_OpacityMaskFilter_00000084502462378245696430000000558968453022758277_);">
				<defs>
					
						<filter id="Adobe_OpacityMaskFilter_00000053546458259380898530000005837672888678762405_" filterUnits="userSpaceOnUse" x="171.467" y="323.165" width="239.533" height="42.543">
						<feFlood  style="flood-color:white;flood-opacity:1" result="back"/>
						<feBlend  in="SourceGraphic" in2="back" mode="normal"/>
					</filter>
				</defs>
				
					<mask maskUnits="userSpaceOnUse" x="171.467" y="323.165" width="239.533" height="42.543" id="SVGID_00000036933891246191064670000013392641112150684857_">
					<g style="filter:url(#Adobe_OpacityMaskFilter_00000053546458259380898530000005837672888678762405_);">
					</g>
				</mask>
				
					<radialGradient id="SVGID_00000129891528545410016060000000329969690082591384_" cx="-491.6337" cy="329.3321" r="111.2412" gradientTransform="matrix(1.4955 0 0 0.1912 1073.0461 281.4682)" gradientUnits="userSpaceOnUse">
					<stop  offset="0.0129" style="stop-color:#FFFFFF"/>
					<stop  offset="0.1647" style="stop-color:#D4D4D4"/>
					<stop  offset="0.5042" style="stop-color:#6A6A6A"/>
					<stop  offset="0.8263" style="stop-color:#000000"/>
				</radialGradient>
				
					<path style="mask:url(#SVGID_00000036933891246191064670000013392641112150684857_);fill:url(#SVGID_00000129891528545410016060000000329969690082591384_);" d="
					M411,325.332c-22.088-1.387-46.926-2.167-73.19-2.167c-91.868,0-166.343,9.523-166.343,21.271
					c0,11.747,74.475,21.272,166.343,21.272c26.265,0,51.103-0.779,73.19-2.165V325.332z"/>
			</g>
		</mask>
		
			<radialGradient id="SVGID_00000132083950634297008040000002587515808933606539_" cx="-491.6337" cy="329.3321" r="111.2412" gradientTransform="matrix(1.4955 0 0 0.1912 1073.0461 281.4682)" gradientUnits="userSpaceOnUse">
			<stop  offset="0.0129" style="stop-color:#000000"/>
			<stop  offset="0.1647" style="stop-color:#2B2B2B"/>
			<stop  offset="0.5042" style="stop-color:#959595"/>
			<stop  offset="0.8263" style="stop-color:#FFFFFF"/>
		</radialGradient>
		<path style="opacity:0.6;fill:url(#SVGID_00000132083950634297008040000002587515808933606539_);" d="M411,325.332
			c-22.088-1.387-46.926-2.167-73.19-2.167c-91.868,0-166.343,9.523-166.343,21.271c0,11.747,74.475,21.272,166.343,21.272
			c26.265,0,51.103-0.779,73.19-2.165V325.332z"/>
		<defs>
			
				<filter id="Adobe_OpacityMaskFilter_00000067211452459264364770000009855089619294584764_" filterUnits="userSpaceOnUse" x="248.315" y="319.835" width="162.685" height="28.357">
				<feFlood  style="flood-color:white;flood-opacity:1" result="back"/>
				<feBlend  in="SourceGraphic" in2="back" mode="normal"/>
			</filter>
		</defs>
		
			<mask maskUnits="userSpaceOnUse" x="248.315" y="319.835" width="162.685" height="28.357" id="SVGID_00000147940946076298702190000001085084348580031635_">
			<g style="filter:url(#Adobe_OpacityMaskFilter_00000067211452459264364770000009855089619294584764_);">
				<defs>
					
						<filter id="Adobe_OpacityMaskFilter_00000176032816364119873550000018291581832349550723_" filterUnits="userSpaceOnUse" x="248.315" y="319.835" width="162.685" height="28.357">
						<feFlood  style="flood-color:white;flood-opacity:1" result="back"/>
						<feBlend  in="SourceGraphic" in2="back" mode="normal"/>
					</filter>
				</defs>
				
					<mask maskUnits="userSpaceOnUse" x="248.315" y="319.835" width="162.685" height="28.357" id="SVGID_00000147940946076298702190000001085084348580031635_">
					<g style="filter:url(#Adobe_OpacityMaskFilter_00000176032816364119873550000018291581832349550723_);">
					</g>
				</mask>
				
					<radialGradient id="SVGID_00000082347926898180930330000006103330395577960365_" cx="-477.3384" cy="274.8195" r="74.1476" gradientTransform="matrix(1.4955 0 0 0.1912 1073.0461 281.4682)" gradientUnits="userSpaceOnUse">
					<stop  offset="0.0129" style="stop-color:#FFFFFF"/>
					<stop  offset="0.1647" style="stop-color:#D4D4D4"/>
					<stop  offset="0.5042" style="stop-color:#6A6A6A"/>
					<stop  offset="0.8263" style="stop-color:#000000"/>
				</radialGradient>
				
					<path style="mask:url(#SVGID_00000147940946076298702190000001085084348580031635_);fill:url(#SVGID_00000082347926898180930330000006103330395577960365_);" d="
					M411,321.478c-15.462-1.048-33.088-1.643-51.811-1.643c-61.233,0-110.873,6.348-110.873,14.177
					c0,7.833,49.64,14.181,110.873,14.181c18.724,0,36.35-0.596,51.811-1.645V321.478z"/>
			</g>
		</mask>
		
			<radialGradient id="SVGID_00000073002455909593423730000005850189197608450711_" cx="-477.3384" cy="274.8195" r="74.1476" gradientTransform="matrix(1.4955 0 0 0.1912 1073.0461 281.4682)" gradientUnits="userSpaceOnUse">
			<stop  offset="0.0129" style="stop-color:#000000"/>
			<stop  offset="0.1647" style="stop-color:#2B2B2B"/>
			<stop  offset="0.5042" style="stop-color:#959595"/>
			<stop  offset="0.8263" style="stop-color:#FFFFFF"/>
		</radialGradient>
		<path style="opacity:0.6;fill:url(#SVGID_00000073002455909593423730000005850189197608450711_);" d="M411,321.478
			c-15.462-1.048-33.088-1.643-51.811-1.643c-61.233,0-110.873,6.348-110.873,14.177c0,7.833,49.64,14.181,110.873,14.181
			c18.724,0,36.35-0.596,51.811-1.645V321.478z"/>
		<g>
			<g>
				<g>
					<rect x="81.773" y="102.321" style="fill:#A4A3A3;" width="19.459" height="11.176"/>
					<g>
						<path style="fill:#C6C6C6;" d="M112.671,85.824c0,11.69-9.477,21.166-21.168,21.166c-11.691,0-21.169-9.475-21.169-21.166
							c0-11.692,9.478-21.171,21.169-21.171C103.194,64.653,112.671,74.132,112.671,85.824z"/>
						<path style="fill:#9F3120;" d="M108.001,85.824c0,9.111-7.386,16.497-16.498,16.497c-9.112,0-16.498-7.386-16.498-16.497
							c0-9.112,7.386-16.5,16.498-16.5C100.615,69.324,108.001,76.712,108.001,85.824z"/>
						<path style="fill:#C13A2A;" d="M104.498,85.824c0,7.175-5.817,12.995-12.995,12.995c-7.179,0-12.995-5.82-12.995-12.995
							c0-7.178,5.816-12.998,12.995-12.998C98.681,72.826,104.498,78.646,104.498,85.824z"/>
						<path style="fill:#FFFFFF;" d="M81.036,85.824c0-5.782,4.687-10.467,10.467-10.467C97.283,75.357,81.036,91.604,81.036,85.824
							z"/>
					</g>
				</g>
				<g>
					<rect x="320.936" y="102.321" style="fill:#A4A3A3;" width="19.458" height="11.176"/>
					<g>
						<path style="fill:#C6C6C6;" d="M351.834,85.824c0,11.69-9.477,21.166-21.168,21.166c-11.692,0-21.169-9.475-21.169-21.166
							c0-11.692,9.477-21.171,21.169-21.171C342.357,64.653,351.834,74.132,351.834,85.824z"/>
						<path style="fill:#9F3120;" d="M347.164,85.824c0,9.111-7.387,16.497-16.498,16.497c-9.112,0-16.499-7.386-16.499-16.497
							c0-9.112,7.387-16.5,16.499-16.5C339.777,69.324,347.164,76.712,347.164,85.824z"/>
						<path style="fill:#C13A2A;" d="M343.661,85.824c0,7.175-5.817,12.995-12.995,12.995c-7.178,0-12.997-5.82-12.997-12.995
							c0-7.178,5.819-12.998,12.997-12.998C337.844,72.826,343.661,78.646,343.661,85.824z"/>
						<path style="fill:#FFFFFF;" d="M320.199,85.824c0-5.782,4.686-10.467,10.467-10.467
							C336.445,75.357,320.199,91.604,320.199,85.824z"/>
					</g>
				</g>
				<rect x="314.859" y="114.198" style="fill:#C6C6C6;" width="31.613" height="217.813"/>
				<rect x="75.696" y="114.198" style="fill:#C6C6C6;" width="31.613" height="217.813"/>
				<g>
					<rect x="49.586" y="112.933" style="fill:#FEC700;" width="309.602" height="38.242"/>
					<polygon points="89.363,151.175 49.586,151.175 81.455,112.933 121.232,112.933 					"/>
					<polygon points="168.682,151.175 128.904,151.175 160.774,112.933 200.552,112.933 					"/>
					<polygon points="248,151.175 208.223,151.175 240.092,112.933 279.87,112.933 					"/>
					<polygon points="327.319,151.175 287.542,151.175 319.41,112.933 359.188,112.933 					"/>
				</g>
				<g>
					<rect x="49.586" y="187.542" style="fill:#FEC700;" width="309.602" height="38.244"/>
					<polygon points="89.363,225.786 49.586,225.786 81.455,187.542 121.232,187.542 					"/>
					<polygon points="168.682,225.786 128.904,225.786 160.774,187.542 200.552,187.542 					"/>
					<polygon points="248,225.786 208.223,225.786 240.092,187.542 279.87,187.542 					"/>
					<polygon points="327.319,225.786 287.542,225.786 319.41,187.542 359.188,187.542 					"/>
				</g>
				<g>
					<path style="fill:#C6C6C6;" d="M98.122,123.035c3.504,3.656,3.38,9.461-0.276,12.965c-3.655,3.503-9.459,3.38-12.963-0.275
						c-3.502-3.655-3.38-9.461,0.276-12.964C88.814,119.257,94.619,119.381,98.122,123.035z"/>
					<path style="fill:#C6C6C6;" d="M97.846,136c-3.655,3.503-9.459,3.38-12.963-0.275c-3.502-3.655-3.38-9.461,0.276-12.964
						L97.846,136z"/>
				</g>
				<g>
					<path style="fill:#C6C6C6;" d="M98.122,200.32c3.504,3.656,3.38,9.46-0.276,12.964c-3.655,3.504-9.459,3.38-12.963-0.275
						c-3.502-3.654-3.38-9.46,0.276-12.963C88.814,196.54,94.619,196.665,98.122,200.32z"/>
					<path style="fill:#C6C6C6;" d="M97.846,213.284c-3.655,3.504-9.459,3.38-12.963-0.275c-3.502-3.654-3.38-9.46,0.276-12.963
						L97.846,213.284z"/>
				</g>
				<g>
					<path style="fill:#C6C6C6;" d="M337.285,123.035c3.504,3.656,3.38,9.461-0.276,12.965c-3.654,3.503-9.459,3.38-12.963-0.275
						c-3.503-3.655-3.38-9.461,0.276-12.964C327.978,119.257,333.782,119.381,337.285,123.035z"/>
					<path style="fill:#C6C6C6;" d="M337.009,136c-3.654,3.503-9.459,3.38-12.963-0.275c-3.503-3.655-3.38-9.461,0.276-12.964
						L337.009,136z"/>
				</g>
				<g>
					<path style="fill:#C6C6C6;" d="M337.285,200.32c3.504,3.656,3.38,9.46-0.276,12.964c-3.654,3.504-9.459,3.38-12.963-0.275
						c-3.503-3.654-3.38-9.46,0.276-12.963C327.978,196.54,333.782,196.665,337.285,200.32z"/>
					<path style="fill:#C6C6C6;" d="M337.009,213.284c-3.654,3.504-9.459,3.38-12.963-0.275c-3.503-3.654-3.38-9.46,0.276-12.963
						L337.009,213.284z"/>
				</g>
			</g>
			<g>
				<rect x="330.663" y="327.147" style="fill:#E94E1B;" width="57.051" height="9.214"/>
				<polygon style="fill:#D74918;" points="365.771,243.329 352.605,243.329 335.052,327.147 383.323,327.147 				"/>
				<polygon style="fill:#FFFFFF;" points="382.865,324.954 381.669,319.248 336.705,319.248 335.51,324.954 				"/>
				<polygon style="fill:#FFFFFF;" points="380.567,313.982 379.464,308.715 338.911,308.715 337.81,313.982 				"/>
				<polygon style="fill:#C4B5A7;" points="358.31,243.329 352.605,243.329 335.052,327.147 358.31,327.147 				"/>
			</g>
			<g>
				<rect x="297.528" y="336.208" style="fill:#E94E1B;" width="57.051" height="9.214"/>
				<polygon style="fill:#D74918;" points="332.636,252.39 319.471,252.39 301.918,336.208 350.19,336.208 				"/>
				<polygon style="fill:#FFFFFF;" points="349.732,334.015 348.534,328.309 303.57,328.309 302.377,334.015 				"/>
				<polygon style="fill:#FFFFFF;" points="347.434,323.042 346.33,317.774 305.778,317.774 304.675,323.042 				"/>
				<polygon style="fill:#C4B5A7;" points="325.176,252.39 319.471,252.39 301.918,336.208 325.176,336.208 				"/>
			</g>
			<g>
				<rect x="230.492" y="327.147" style="fill:#E94E1B;" width="57.05" height="9.214"/>
				<polygon style="fill:#D74918;" points="265.6,243.329 252.435,243.329 234.881,327.147 283.151,327.147 				"/>
				<polygon style="fill:#FFFFFF;" points="282.693,324.954 281.497,319.248 236.533,319.248 235.339,324.954 				"/>
				<polygon style="fill:#FFFFFF;" points="280.396,313.982 279.293,308.715 238.739,308.715 237.639,313.982 				"/>
				<polygon style="fill:#C4B5A7;" points="258.139,243.329 252.435,243.329 234.881,327.147 258.139,327.147 				"/>
			</g>
		</g>
		<g>
			<g>
				<path style="fill:#FDC200;" d="M223.45,262.313c-2.873,2.873-7.573,2.873-10.446,0l-81.944-81.944
					c-2.873-2.873-2.873-7.575,0-10.446l81.944-81.946c2.873-2.871,7.573-2.871,10.446,0l81.945,81.946
					c2.872,2.871,2.872,7.573,0,10.446L223.45,262.313z"/>
				<path style="fill:#F8AB08;" d="M216.75,85.972c-1.375,0.276-2.686,0.944-3.746,2.004l-81.944,81.946
					c-2.873,2.871-2.873,7.573,0,10.446l81.944,81.944c1.061,1.061,2.371,1.728,3.746,2.005V85.972z"/>
				<path style="fill:none;stroke:#352E35;stroke-width:4.4292;stroke-miterlimit:10;" d="M222.805,251.538
					c-2.518,2.518-6.638,2.518-9.154,0l-71.816-71.814c-2.519-2.52-2.519-6.638,0-9.156l71.816-71.816
					c2.517-2.519,6.637-2.519,9.154,0l71.815,71.816c2.518,2.519,2.518,6.637,0,9.156L222.805,251.538z"/>
			</g>
			<g>
				<g>
					<g>
						<path style="fill:#352E35;" d="M230.248,123.625c-1.807,4.114-6.607,5.987-10.724,4.182
							c-4.116-1.806-5.989-6.606-4.184-10.723c1.807-4.117,6.608-5.991,10.726-4.184
							C230.183,114.706,232.055,119.509,230.248,123.625z"/>
					</g>
					<g>
						<g>
							<path style="fill:#352E35;" d="M216.248,114.993c1.809-4.12,6.615-5.996,10.736-4.188c4.121,1.81,5.996,6.616,4.188,10.737
								L216.248,114.993z"/>
						</g>
						<g>
							<path style="fill:#352E35;" d="M231.996,123.781l-17.953-7.879c-0.516-0.227-0.524-1.342-0.524-1.342l2.729,0.433
								l14.924,6.549l2.166,1.717C233.338,123.259,232.512,124.007,231.996,123.781z"/>
						</g>
						<g>
							<g>
								<path style="fill:#352E35;" d="M230.101,113.212l-1.64,3.734c-0.184,0.418-0.672,0.608-1.091,0.426
									c-0.418-0.185-0.608-0.674-0.425-1.091l1.903-4.339c-0.349-0.281-0.723-0.539-1.123-0.766l-1.8,4.101
									c-0.184,0.419-0.672,0.608-1.09,0.424c-0.418-0.184-0.609-0.67-0.426-1.09l1.799-4.101c-0.438-0.14-0.881-0.24-1.324-0.307
									l-1.903,4.336c-0.184,0.42-0.672,0.611-1.09,0.426c-0.419-0.183-0.61-0.671-0.426-1.09l1.64-3.733
									c-2.908,0.218-5.604,1.994-6.857,4.851l14.924,6.549C232.426,118.686,231.908,115.499,230.101,113.212z"/>
							</g>
							<g>
								<path style="fill:#352E35;" d="M224.836,115.702c0.418,0.185,0.906-0.005,1.09-0.424l1.8-4.101
									c-0.238-0.134-0.485-0.258-0.741-0.372c-0.256-0.11-0.515-0.21-0.775-0.294l-1.799,4.101
									C224.227,115.032,224.418,115.519,224.836,115.702z"/>
							</g>
							<g>
								<path style="fill:#352E35;" d="M227.37,117.372c0.419,0.183,0.907-0.008,1.091-0.426l1.64-3.734
									c-0.367-0.463-0.784-0.889-1.252-1.27l-1.903,4.339C226.762,116.698,226.952,117.188,227.37,117.372z"/>
							</g>
							<g>
								<path style="fill:#352E35;" d="M221.892,114.966c0.418,0.186,0.906-0.006,1.09-0.426l1.903-4.336
									c-0.596-0.086-1.192-0.106-1.779-0.062l-1.64,3.733C221.281,114.295,221.473,114.783,221.892,114.966z"/>
							</g>
						</g>
					</g>
					<g>
						<path style="fill:#352E35;" d="M226.529,134.37c-0.412,0.941-7.938,16.849-11.181,22.797
							c-0.772,1.416-2.563,1.769-3.855,1.203c-1.292-0.568-6.787-2.135-8.147-2.73c-1.361-0.598-2.574-3.711-2.025-5.322
							c2.219-6.515,8.22-22.287,8.63-23.223l0,0c0.512-1.164,1.87-1.693,3.036-1.183l12.359,5.424
							C226.512,131.847,227.041,133.206,226.529,134.37L226.529,134.37z"/>
					</g>
					<g>
						<path style="fill:#352E35;" d="M228.137,159.734c-1.454,0-2.647-1.165-2.675-2.626c0-0.048-0.093-4.805-0.552-9.911
							c-0.791-8.785-1.964-10.833-2.184-11.147c-1.139-0.805-1.475-2.367-0.737-3.574c0.768-1.261,2.416-1.66,3.677-0.892
							c1.723,1.05,3.461,3.524,4.507,14.419c0.536,5.572,0.636,10.788,0.64,11.008c0.027,1.475-1.148,2.696-2.627,2.723
							C228.17,159.734,228.153,159.734,228.137,159.734z"/>
					</g>
					<g>
						<path style="fill:#352E35;" d="M196.818,142.377c-0.212,0-0.426-0.025-0.642-0.078c-1.434-0.352-2.312-1.801-1.958-3.238
							c0.543-2.207,2.457-9.594,4.283-11.958c1.314-1.701,3.881-2.389,8.076-2.166c2.598,0.141,5.448,0.635,6.629,1.154
							c1.354,0.594,1.969,2.172,1.375,3.525c-0.592,1.347-2.16,1.963-3.51,1.38c-1.42-0.544-6.976-1.109-8.442-0.468
							c-0.796,1.273-2.271,5.977-3.216,9.812C199.114,141.561,198.02,142.377,196.818,142.377z"/>
					</g>
					<g>
						<path style="fill:#352E35;" d="M201.68,185.862c-0.464,0-0.936-0.088-1.392-0.271c-1.902-0.771-2.821-2.938-2.052-4.839
							l5.966-14.755l-2.674-12.714c-0.423-2.009,0.863-3.98,2.872-4.399c2.008-0.422,3.979,0.861,4.401,2.87l2.906,13.823
							c0.152,0.722,0.086,1.473-0.191,2.158l-6.391,15.803C204.541,184.984,203.148,185.862,201.68,185.862z"/>
					</g>
					<g>
						<path style="fill:#352E35;" d="M218.482,185.862c-0.18,0-0.361-0.015-0.545-0.04c-2.029-0.298-3.434-2.185-3.136-4.218
							l2.265-15.446l-6.647-9.113c-1.208-1.657-0.846-3.981,0.813-5.192c1.658-1.209,3.982-0.844,5.192,0.815l7.541,10.337
							c0.574,0.786,0.816,1.767,0.675,2.729l-2.486,16.95C221.883,184.531,220.295,185.862,218.482,185.862z"/>
					</g>
					<g>
						<path style="fill:#352E35;" d="M217.457,153.113c1.412-2.79,3.049-6.13,4.543-9.222c-0.537-6.333,1.134-12.512,1.473-13.379
							c0.34-0.863-1.537-1.445-1.814-0.795c-0.278,0.65-5.617,5.895-5.617,5.895s0.45-7.594,0.626-8.084
							c0.174-0.492-2.288-1.612-2.541-1.114c-0.253,0.495-4.076,8.301-7.893,10.431c-1.217,3.247-2.527,6.789-3.601,9.766
							c0,0,2.264,2.21,6.797,4.2C213.964,152.798,217.457,153.113,217.457,153.113z"/>
					</g>
					<g>
						<path style="fill:#352E35;" d="M204.304,142.039c-0.327,0.886-0.649,1.761-0.958,2.609l15.047,6.604
							c0.402-0.808,0.816-1.644,1.232-2.489L204.304,142.039z"/>
					</g>
					<g>
						<path style="fill:#352E35;" d="M220.715,146.536c0.365-0.748,0.729-1.494,1.084-2.23l-15.768-6.92
							c-0.286,0.767-0.576,1.547-0.867,2.326L220.715,146.536z"/>
					</g>
					<g>
						
							<rect x="202.421" y="141.569" transform="matrix(0.4018 -0.9157 0.9157 0.4018 -2.1129 280.1994)" style="fill:#352E35;" width="21.998" height="0.296"/>
					</g>
					<g>
						<g>
							<polygon style="fill:#352E35;" points="200.506,137.208 196.182,143.523 195.446,143.02 199.77,136.703 							"/>
						</g>
						<g>
							
								<rect x="220.336" y="132.564" transform="matrix(0.5645 -0.8254 0.8254 0.5645 -32.2956 250.6008)" style="fill:#352E35;" width="2.032" height="46.687"/>
						</g>
						<g>
							<path style="fill:#352E35;" d="M250.74,169.783c1.798,1.229,2.979,5.821,1.804,7.539c-1.175,1.717-5.745,2.251-7.626,0.963
								c-1.88-1.287-5.478-3.749-5.478-3.749s0.718-2.452,2.23-4.659c1.51-2.207,3.592-3.845,3.592-3.845
								S248.941,168.55,250.74,169.783z"/>
						</g>
						<g>
							<path style="fill:#352E35;" d="M239.301,169.696l1.399-2.043c0,0,3.618,2.475,4.722,3.231
								c1.104,0.756,1.017,2.196,1.017,2.196s-1.495,0.477-2.416-0.152C243.104,172.299,239.301,169.696,239.301,169.696z"/>
						</g>
						<g>
							
								<rect x="202.017" y="141.846" transform="matrix(0.5647 -0.8253 0.8253 0.5647 -29.9714 230.2096)" style="fill:#352E35;" width="2.477" height="3.344"/>
						</g>
						<g>
							<path style="fill:#352E35;" d="M199.378,136.883c0.884,0.825,2.785,2.837,1.903,4.127c-0.304,0.443-0.64,0.933-1.066,1.554
								c-0.936,1.371-3.443,0.242-4.506-0.322l-0.615,0.898c0,0,4.501,2.766,6.083,0.455c0.559-0.817,1-1.461,1.399-2.043
								c1.489-2.178-2.571-5.587-2.571-5.587L199.378,136.883z"/>
						</g>
					</g>
				</g>
			</g>
			<g>
				<g>
					<path style="fill:#352E35;" d="M193.875,199.171c0,0.674-0.111,1.31-0.334,1.906c-0.223,0.598-0.533,1.138-0.934,1.62
						c-0.4,0.483-0.874,0.899-1.42,1.248c-0.547,0.35-1.137,0.619-1.772,0.811c-0.28,0.089-0.566,0.158-0.858,0.209
						c-0.292,0.051-0.584,0.076-0.876,0.076c-0.292,0-0.581-0.025-0.867-0.076c-0.286-0.051-0.569-0.12-0.849-0.209
						c-0.635-0.191-1.226-0.461-1.771-0.811c-0.547-0.349-1.02-0.765-1.42-1.248c-0.4-0.482-0.712-1.022-0.934-1.62
						c-0.223-0.597-0.334-1.232-0.334-1.906v-9.376h4.116v9.129c0,0.279,0.058,0.537,0.172,0.771
						c0.114,0.235,0.267,0.439,0.458,0.61c0.189,0.171,0.409,0.305,0.656,0.4c0.248,0.095,0.506,0.143,0.772,0.143
						c0.279,0,0.543-0.048,0.791-0.143c0.247-0.096,0.467-0.23,0.657-0.4c0.191-0.172,0.344-0.375,0.457-0.61
						c0.115-0.234,0.172-0.492,0.172-0.771v-9.129h4.117V199.171z"/>
					<path style="fill:#352E35;" d="M205.215,204.564l-5.127-7.89v7.89h-3.945v-14.77h3.926l5.146,7.966v-7.966h3.963v14.77H205.215
						z"/>
					<path style="fill:#352E35;" d="M218.459,204.584h-6.613v-14.789h6.613c1.029,0,1.995,0.193,2.896,0.581
						c0.902,0.388,1.69,0.915,2.363,1.582c0.674,0.667,1.204,1.451,1.592,2.354c0.388,0.902,0.582,1.861,0.582,2.878
						s-0.194,1.975-0.582,2.878c-0.388,0.902-0.918,1.687-1.592,2.354c-0.673,0.667-1.461,1.194-2.363,1.582
						C220.454,204.391,219.488,204.584,218.459,204.584z M218.002,193.396h-2.268v7.586h2.268c0.533,0,1.032-0.099,1.496-0.296
						c0.463-0.197,0.867-0.467,1.21-0.809c0.343-0.344,0.612-0.747,0.81-1.211c0.197-0.463,0.296-0.956,0.296-1.477
						c0-0.52-0.099-1.014-0.296-1.478c-0.197-0.463-0.467-0.867-0.81-1.21c-0.343-0.343-0.747-0.612-1.21-0.81
						C219.034,193.495,218.535,193.396,218.002,193.396z"/>
					<path style="fill:#352E35;" d="M227.684,204.584v-14.789h11.797v3.525h-7.947v2.115h7.49v3.526h-7.49v2.115h7.947v3.507
						H227.684z"/>
					<path style="fill:#352E35;" d="M250.744,204.584l-2.573-4.574h-2.497l0.02,4.574h-4.078v-14.789h7.414
						c0.355,0,0.717,0.066,1.086,0.2c0.368,0.133,0.725,0.311,1.066,0.533c0.344,0.223,0.661,0.474,0.953,0.753
						c0.293,0.279,0.541,0.565,0.744,0.857c0.254,0.369,0.447,0.798,0.581,1.286c0.134,0.489,0.2,0.957,0.2,1.401
						c0,0.737-0.172,1.423-0.515,2.059c-0.343,0.635-0.819,1.169-1.43,1.601l3.469,6.099H250.744z M247.866,193.092h-2.306v3.183
						h2.306c0.229,0,0.444-0.041,0.648-0.123c0.203-0.082,0.382-0.195,0.534-0.341c0.152-0.146,0.272-0.313,0.362-0.502
						c0.088-0.189,0.133-0.398,0.133-0.625c0-0.227-0.045-0.436-0.133-0.626c-0.09-0.189-0.21-0.356-0.362-0.502
						c-0.152-0.145-0.331-0.259-0.534-0.341C248.311,193.133,248.095,193.092,247.866,193.092z"/>
				</g>
				<g>
					<path style="fill:#352E35;" d="M185.146,212.424c-0.479,0-0.926-0.091-1.342-0.272c-0.415-0.181-0.777-0.429-1.087-0.744
						c-0.31-0.314-0.554-0.68-0.732-1.096c-0.179-0.415-0.268-0.856-0.268-1.325c0-0.468,0.089-0.91,0.268-1.325
						c0.178-0.415,0.422-0.78,0.732-1.096c0.31-0.314,0.672-0.563,1.087-0.744c0.416-0.182,0.863-0.271,1.342-0.271
						c0.436,0,0.854,0.079,1.255,0.238c0.401,0.158,0.772,0.389,1.112,0.689l-1.338,1.171c-0.323-0.229-0.664-0.343-1.02-0.343
						c-0.233,0-0.451,0.045-0.651,0.134c-0.201,0.089-0.374,0.212-0.52,0.368c-0.145,0.156-0.259,0.336-0.342,0.539
						c-0.084,0.203-0.126,0.417-0.126,0.64c0,0.229,0.042,0.444,0.126,0.648c0.083,0.203,0.197,0.382,0.342,0.535
						c0.145,0.153,0.316,0.275,0.515,0.368c0.198,0.092,0.414,0.138,0.648,0.138c0.268,0,0.518-0.061,0.749-0.185
						c0.232-0.122,0.434-0.295,0.607-0.518l1.38,1.12c-0.346,0.424-0.755,0.751-1.226,0.982
						C186.186,212.308,185.682,212.424,185.146,212.424z"/>
					<path style="fill:#352E35;" d="M191.285,212.424c-0.48,0-0.928-0.09-1.347-0.268c-0.418-0.178-0.783-0.422-1.095-0.732
						c-0.313-0.309-0.56-0.673-0.74-1.091c-0.182-0.418-0.272-0.864-0.272-1.338c0-0.475,0.091-0.92,0.272-1.338
						c0.181-0.419,0.428-0.782,0.74-1.092c0.312-0.309,0.677-0.555,1.095-0.736c0.419-0.181,0.867-0.271,1.347-0.271
						c0.474,0,0.921,0.091,1.342,0.271c0.421,0.182,0.787,0.427,1.1,0.736c0.313,0.31,0.559,0.673,0.74,1.092
						c0.182,0.418,0.271,0.863,0.271,1.338c0,0.474-0.09,0.92-0.271,1.338c-0.182,0.418-0.428,0.781-0.74,1.091
						c-0.313,0.31-0.679,0.554-1.1,0.732C192.206,212.334,191.759,212.424,191.285,212.424z M191.285,207.214
						c-0.246,0-0.473,0.049-0.682,0.146c-0.209,0.097-0.389,0.227-0.539,0.389c-0.15,0.161-0.27,0.35-0.355,0.565
						c-0.087,0.215-0.13,0.441-0.13,0.682c0,0.233,0.043,0.46,0.13,0.677c0.086,0.218,0.205,0.407,0.355,0.569
						c0.15,0.161,0.33,0.291,0.539,0.389c0.209,0.098,0.436,0.146,0.682,0.146c0.245,0,0.473-0.049,0.682-0.146
						c0.209-0.098,0.389-0.227,0.539-0.389c0.15-0.162,0.27-0.352,0.355-0.569c0.086-0.217,0.129-0.443,0.129-0.677
						c0-0.24-0.043-0.467-0.129-0.682c-0.086-0.215-0.205-0.403-0.355-0.565c-0.15-0.162-0.33-0.292-0.539-0.389
						C191.758,207.263,191.53,207.214,191.285,207.214z"/>
					<path style="fill:#352E35;" d="M199.38,212.214l-2.249-3.462v3.462h-1.732v-6.48h1.723l2.259,3.495v-3.495h1.739v6.48H199.38z"
						/>
					<path style="fill:#352E35;" d="M204.715,212.424c-0.436,0-0.865-0.052-1.292-0.154c-0.427-0.102-0.835-0.245-1.226-0.429
						c-0.011,0-0.039-0.011-0.084-0.033c-0.044-0.027-0.066-0.047-0.066-0.058c0-0.006,0.012-0.028,0.033-0.066
						c0.023-0.039,0.051-0.088,0.084-0.145c0.033-0.059,0.072-0.125,0.117-0.2c0.045-0.074,0.089-0.15,0.134-0.229
						c0.095-0.155,0.184-0.303,0.268-0.442c0.083-0.139,0.142-0.239,0.176-0.301c0.072,0.028,0.142,0.062,0.209,0.101
						c0.301,0.15,0.604,0.266,0.907,0.347c0.304,0.081,0.626,0.121,0.966,0.121c0.095,0,0.196-0.004,0.306-0.013
						c0.108-0.008,0.207-0.029,0.297-0.063c0.089-0.033,0.162-0.085,0.221-0.154c0.059-0.07,0.088-0.169,0.088-0.298
						c0-0.061-0.016-0.116-0.05-0.163c-0.033-0.048-0.075-0.09-0.126-0.126c-0.05-0.036-0.102-0.068-0.158-0.096
						c-0.056-0.028-0.109-0.051-0.159-0.067c-0.116-0.045-0.237-0.078-0.359-0.101c-0.122-0.023-0.245-0.048-0.368-0.075
						c-0.162-0.039-0.32-0.075-0.477-0.109c-0.156-0.033-0.307-0.072-0.451-0.117c-0.15-0.045-0.295-0.094-0.432-0.146
						c-0.136-0.053-0.263-0.115-0.38-0.188c-0.239-0.145-0.431-0.339-0.573-0.582c-0.142-0.243-0.213-0.566-0.213-0.968
						c0-0.139,0.016-0.28,0.046-0.423c0.03-0.142,0.077-0.277,0.138-0.406c0.123-0.257,0.281-0.469,0.477-0.636
						c0.195-0.168,0.412-0.299,0.648-0.395c0.237-0.095,0.486-0.161,0.748-0.2c0.263-0.039,0.524-0.059,0.787-0.059
						c0.429,0,0.853,0.052,1.27,0.155c0.419,0.104,0.817,0.273,1.196,0.509c-0.14,0.235-0.275,0.467-0.406,0.693
						c-0.131,0.227-0.264,0.457-0.396,0.691c-0.324-0.156-0.637-0.285-0.941-0.385c-0.304-0.101-0.631-0.15-0.982-0.15
						c-0.084,0-0.172,0.004-0.264,0.012c-0.092,0.009-0.177,0.029-0.254,0.064c-0.079,0.033-0.143,0.082-0.193,0.145
						c-0.05,0.064-0.075,0.149-0.075,0.255c0,0.078,0.017,0.145,0.05,0.2c0.039,0.061,0.111,0.115,0.214,0.163
						c0.102,0.047,0.229,0.09,0.38,0.129c0.15,0.039,0.315,0.077,0.494,0.113c0.178,0.036,0.365,0.079,0.561,0.129
						c0.189,0.051,0.38,0.107,0.572,0.172c0.192,0.064,0.373,0.142,0.543,0.233c0.171,0.092,0.322,0.2,0.457,0.325
						c0.133,0.126,0.239,0.274,0.317,0.447c0.062,0.128,0.103,0.266,0.126,0.413c0.021,0.147,0.033,0.294,0.033,0.438
						c0,0.423-0.087,0.771-0.26,1.044c-0.173,0.272-0.398,0.488-0.678,0.646c-0.278,0.159-0.594,0.271-0.944,0.334
						C205.417,212.392,205.066,212.424,204.715,212.424z"/>
					<path style="fill:#352E35;" d="M213.588,207.339h-1.781v4.884h-1.766v-4.884h-1.781l-0.116-0.117v-1.488h5.561v1.488
						L213.588,207.339z"/>
					<path style="fill:#352E35;" d="M218.229,212.223l-1.129-2.007h-1.096l0.009,2.007h-1.79v-6.489h3.254
						c0.155,0,0.314,0.029,0.477,0.088c0.161,0.059,0.317,0.137,0.468,0.234c0.15,0.098,0.29,0.207,0.418,0.33
						c0.128,0.123,0.237,0.248,0.326,0.376c0.111,0.162,0.196,0.351,0.255,0.564c0.059,0.215,0.088,0.42,0.088,0.615
						c0,0.323-0.075,0.624-0.226,0.902c-0.15,0.279-0.359,0.514-0.628,0.703l1.523,2.676H218.229z M216.966,207.18h-1.012v1.396
						h1.012c0.101,0,0.195-0.018,0.284-0.054c0.09-0.036,0.168-0.086,0.234-0.149c0.066-0.063,0.119-0.137,0.158-0.221
						c0.039-0.083,0.059-0.174,0.059-0.275c0-0.1-0.02-0.19-0.059-0.273c-0.039-0.083-0.092-0.157-0.158-0.221
						c-0.066-0.064-0.145-0.113-0.234-0.149C217.161,207.198,217.066,207.18,216.966,207.18z"/>
					<path style="fill:#352E35;" d="M225.947,209.848c0,0.296-0.049,0.574-0.146,0.836c-0.098,0.263-0.234,0.499-0.41,0.711
						c-0.176,0.212-0.383,0.395-0.623,0.548c-0.239,0.153-0.498,0.271-0.777,0.355c-0.123,0.039-0.248,0.069-0.377,0.092
						c-0.128,0.022-0.256,0.034-0.385,0.034c-0.127,0-0.254-0.012-0.38-0.034c-0.126-0.022-0.249-0.053-0.372-0.092
						c-0.279-0.084-0.538-0.202-0.777-0.355c-0.24-0.153-0.447-0.336-0.623-0.548c-0.176-0.212-0.313-0.448-0.41-0.711
						c-0.098-0.262-0.146-0.54-0.146-0.836v-4.114h1.807v4.006c0,0.122,0.025,0.235,0.075,0.339c0.05,0.103,0.117,0.192,0.2,0.268
						c0.084,0.075,0.18,0.134,0.289,0.175c0.108,0.042,0.222,0.064,0.338,0.064c0.123,0,0.238-0.021,0.348-0.064
						c0.109-0.041,0.205-0.1,0.289-0.175c0.083-0.075,0.15-0.165,0.2-0.268c0.05-0.104,0.075-0.217,0.075-0.339v-4.006h1.807
						V209.848z"/>
					<path style="fill:#352E35;" d="M229.986,212.424c-0.48,0-0.928-0.091-1.342-0.272c-0.416-0.181-0.778-0.429-1.088-0.744
						c-0.31-0.314-0.553-0.68-0.732-1.096c-0.179-0.415-0.268-0.856-0.268-1.325c0-0.468,0.089-0.91,0.268-1.325
						c0.179-0.415,0.422-0.78,0.732-1.096c0.309-0.314,0.672-0.563,1.088-0.744c0.414-0.182,0.861-0.271,1.342-0.271
						c0.435,0,0.853,0.079,1.254,0.238c0.401,0.158,0.772,0.389,1.112,0.689l-1.338,1.171c-0.323-0.229-0.663-0.343-1.02-0.343
						c-0.234,0-0.451,0.045-0.652,0.134c-0.2,0.089-0.373,0.212-0.518,0.368c-0.146,0.156-0.26,0.336-0.344,0.539
						c-0.084,0.203-0.125,0.417-0.125,0.64c0,0.229,0.041,0.444,0.125,0.648c0.084,0.203,0.198,0.382,0.344,0.535
						c0.145,0.153,0.316,0.275,0.514,0.368c0.197,0.092,0.414,0.138,0.648,0.138c0.268,0,0.517-0.061,0.748-0.185
						c0.231-0.122,0.434-0.295,0.606-0.518l1.38,1.12c-0.346,0.424-0.754,0.751-1.225,0.982
						C231.024,212.308,230.521,212.424,229.986,212.424z"/>
					<path style="fill:#352E35;" d="M238.373,207.339h-1.781v4.884h-1.764v-4.884h-1.781l-0.117-0.117v-1.488h5.561v1.488
						L238.373,207.339z"/>
					<path style="fill:#352E35;" d="M239.26,212.223v-6.489h1.748v6.489H239.26z"/>
					<path style="fill:#352E35;" d="M245.507,212.424c-0.479,0-0.929-0.09-1.347-0.268c-0.418-0.178-0.783-0.422-1.096-0.732
						c-0.313-0.309-0.559-0.673-0.74-1.091c-0.181-0.418-0.271-0.864-0.271-1.338c0-0.475,0.091-0.92,0.271-1.338
						c0.182-0.419,0.428-0.782,0.74-1.092c0.313-0.309,0.678-0.555,1.096-0.736c0.418-0.181,0.867-0.271,1.347-0.271
						c0.474,0,0.921,0.091,1.342,0.271c0.421,0.182,0.788,0.427,1.1,0.736c0.313,0.31,0.559,0.673,0.74,1.092
						c0.181,0.418,0.272,0.863,0.272,1.338c0,0.474-0.092,0.92-0.272,1.338c-0.181,0.418-0.428,0.781-0.74,1.091
						c-0.312,0.31-0.679,0.554-1.1,0.732C246.428,212.334,245.98,212.424,245.507,212.424z M245.507,207.214
						c-0.245,0-0.473,0.049-0.682,0.146c-0.209,0.097-0.39,0.227-0.54,0.389c-0.15,0.161-0.269,0.35-0.355,0.565
						c-0.086,0.215-0.129,0.441-0.129,0.682c0,0.233,0.043,0.46,0.129,0.677c0.087,0.218,0.205,0.407,0.355,0.569
						c0.15,0.161,0.331,0.291,0.54,0.389c0.209,0.098,0.437,0.146,0.682,0.146c0.245,0,0.472-0.049,0.681-0.146
						c0.21-0.098,0.39-0.227,0.54-0.389c0.15-0.162,0.268-0.352,0.355-0.569c0.087-0.217,0.13-0.443,0.13-0.677
						c0-0.24-0.043-0.467-0.13-0.682c-0.087-0.215-0.205-0.403-0.355-0.565c-0.15-0.162-0.33-0.292-0.54-0.389
						C245.979,207.263,245.752,207.214,245.507,207.214z"/>
					<path style="fill:#352E35;" d="M253.602,212.214l-2.25-3.462v3.462h-1.73v-6.48h1.723l2.258,3.495v-3.495h1.739v6.48H253.602z"
						/>
				</g>
			</g>
		</g>
	</g>
</g>
</svg>
